<svg xmlns="http://www.w3.org/2000/svg" viewBox="0 0 800 600">
  <style>
    .st0{fill:#0d6efd;}
    .st1{fill:#f8f9fa;}
    .st2{fill:#6c757d;}
    .st3{fill:#198754;}
    .st4{fill:#0dcaf0;}
  </style>
  <rect x="100" y="100" width="600" height="400" rx="20" ry="20" class="st1"/>
  <path d="M150 150 L650 150 L650 450 L150 450 Z" stroke="#dee2e6" stroke-width="2" fill="none" stroke-dasharray="5,5"/>
  <circle cx="400" cy="300" r="120" fill="#e9ecef"/>
  <path d="M400 180 L400 420" stroke="#0d6efd" stroke-width="4" stroke-dasharray="15,10"/>
  <path d="M260 300 L540 300" stroke="#0d6efd" stroke-width="4" stroke-dasharray="15,10"/>
  <circle cx="400" cy="300" r="60" class="st0" opacity="0.3"/>
  <g transform="translate(350, 250)">
    <path d="M50 0 L80 30 L65 30 L65 80 L35 80 L35 30 L20 30 Z" class="st0"/>
    <rect x="35" y="30" width="30" height="10" class="st3"/>
    <rect x="35" y="50" width="30" height="10" class="st4"/>
  </g>
  <g transform="translate(600, 150)">
    <rect x="0" y="0" width="30" height="10" class="st0"/>
    <rect x="0" y="15" width="20" height="10" class="st0"/>
    <rect x="0" y="30" width="25" height="10" class="st0"/>
  </g>
  <g transform="translate(150, 400)">
    <rect x="0" y="0" width="30" height="10" class="st0"/>
    <rect x="0" y="15" width="20" height="10" class="st0"/>
    <rect x="0" y="30" width="25" height="10" class="st0"/>
  </g>
  <g transform="translate(650, 400)">
    <circle cx="0" cy="0" r="15" class="st3"/>
    <circle cx="-30" cy="0" r="10" class="st4"/>
    <circle cx="-55" cy="0" r="5" class="st0"/>
  </g>
  <g transform="translate(200, 150)">
    <circle cx="0" cy="0" r="15" class="st3"/>
    <circle cx="-30" cy="0" r="10" class="st4"/>
    <circle cx="-55" cy="0" r="5" class="st0"/>
  </g>
  <text x="400" y="500" text-anchor="middle" font-family="Arial" font-size="24" font-weight="bold" class="st0">AquaGuard Digital Watermarking</text>
</svg>